<svg width="62" height="40" viewBox="0 0 62 40" fill="none" xmlns="http://www.w3.org/2000/svg">
<g clip-path="url(#clip0_4_133)">
<path fill-rule="evenodd" clip-rule="evenodd" d="M34.0128 25.0677H0L24.5701 2.29488C26.6638 0.354345 29.6745 -0.283429 32.4259 0.629863C35.1766 1.54372 37.131 3.8312 37.5256 6.59886L41.4509 34.1008C41.5685 34.9223 42.128 35.5697 42.9474 35.831C43.7668 36.0935 44.6193 35.8962 45.2267 35.3072L55.7618 25.0677H43.6959L43.2924 22.5653H62L47.0824 37.0646C46.156 37.9655 44.9266 38.4462 43.6611 38.4462C43.1489 38.4462 42.6301 38.3668 42.1238 38.2053C40.3668 37.6446 39.119 36.2018 38.8673 34.4404L34.9421 6.939C34.6774 5.08181 33.4178 3.60784 31.5722 2.99501C29.7271 2.38105 27.787 2.79319 26.3814 4.09482L6.45268 22.5653H33.6459L34.0128 25.0677ZM54.9712 12.0251H52.605V0.250366H54.9712L59.4588 7.97168H59.4937V0.250366H61.8776V12.0251H59.5463L55.0066 4.30377H54.9712V12.0251Z" fill="#858686"/>
</g>
<defs>
<clipPath id="clip0_4_133">
<rect width="62" height="39" fill="white" transform="translate(0 0.219971)"/>
</clipPath>
</defs>
</svg>
